<svg width="20" height="20" viewBox="0 0 20 20" fill="none" xmlns="http://www.w3.org/2000/svg">
<path d="M8.33317 5.8335C8.33317 6.88905 8.59984 7.87238 9.13317 8.7835C9.64428 9.66127 10.3387 10.3557 11.2165 10.8668C12.1276 11.4002 13.1109 11.6668 14.1665 11.6668C14.9665 11.6668 15.7332 11.5113 16.4665 11.2002C17.1665 10.9002 17.7887 10.4724 18.3332 9.91683V10.0002C18.3332 11.1335 18.1165 12.2168 17.6832 13.2502C17.2609 14.2391 16.6637 15.1196 15.8915 15.8918C15.1193 16.6641 14.2387 17.2613 13.2498 17.6835C12.2165 18.1168 11.1332 18.3335 9.99984 18.3335C8.8665 18.3335 7.78317 18.1168 6.74984 17.6835C5.76095 17.2613 4.88039 16.6641 4.10817 15.8918C3.33595 15.1196 2.73873 14.2391 2.3165 13.2502C1.88317 12.2168 1.6665 11.1335 1.6665 10.0002C1.6665 8.86683 1.88317 7.7835 2.3165 6.75016C2.73873 5.76127 3.33595 4.88072 4.10817 4.1085C4.88039 3.33627 5.76095 2.73905 6.74984 2.31683C7.78317 1.8835 8.8665 1.66683 9.99984 1.66683H10.0832C9.52762 2.21127 9.09984 2.8335 8.79984 3.53349C8.48873 4.26683 8.33317 5.03349 8.33317 5.8335ZM3.33317 10.0002C3.33317 11.2113 3.63873 12.3335 4.24984 13.3668C4.83873 14.3668 5.63317 15.1613 6.63317 15.7502C7.6665 16.3613 8.78873 16.6668 9.99984 16.6668C11.2554 16.6668 12.4165 16.3391 13.4832 15.6835C14.5165 15.0502 15.3165 14.2002 15.8832 13.1335C15.3165 13.2668 14.7443 13.3335 14.1665 13.3335C12.8109 13.3335 11.5498 12.9946 10.3832 12.3168C9.24984 11.6502 8.34984 10.7502 7.68317 9.61683C7.00539 8.45016 6.6665 7.18905 6.6665 5.8335C6.6665 5.25572 6.73317 4.6835 6.8665 4.11683C5.79984 4.6835 4.94984 5.4835 4.3165 6.51683C3.66095 7.5835 3.33317 8.74461 3.33317 10.0002Z" fill="#4B5563"/>
</svg>
