<svg width="18" height="18" viewBox="0 0 18 18" fill="none" xmlns="http://www.w3.org/2000/svg">
<path d="M13.4099 12.3451L16.6199 15.5551L15.5549 16.6201L12.3449 13.4101C11.7549 13.8801 11.1099 14.2401 10.4099 14.4901C9.66988 14.7501 8.90988 14.8801 8.12988 14.8801C6.90988 14.8801 5.77488 14.5751 4.72488 13.9651C3.70488 13.3651 2.89988 12.5551 2.30988 11.5351C1.68988 10.4851 1.37988 9.35012 1.37988 8.13012C1.37988 6.91012 1.68988 5.77512 2.30988 4.72512C2.89988 3.70512 3.70488 2.90012 4.72488 2.31012C5.77488 1.69012 6.90988 1.38012 8.12988 1.38012C9.34988 1.38012 10.4849 1.69012 11.5349 2.31012C12.5549 2.90012 13.3649 3.70512 13.9649 4.72512C14.5749 5.77512 14.8799 6.91012 14.8799 8.13012C14.8799 8.91012 14.7499 9.67012 14.4899 10.4101C14.2399 11.1101 13.8799 11.7551 13.4099 12.3451ZM11.8949 11.7901C12.3649 11.3101 12.7299 10.7601 12.9899 10.1401C13.2499 9.50012 13.3799 8.83012 13.3799 8.13012C13.3799 7.18012 13.1399 6.29512 12.6599 5.47512C12.1999 4.68512 11.5749 4.06012 10.7849 3.60012C9.96488 3.12012 9.07988 2.88012 8.12988 2.88012C7.17988 2.88012 6.29488 3.12012 5.47488 3.60012C4.68488 4.06012 4.05988 4.68512 3.59988 5.47512C3.11988 6.29512 2.87988 7.18012 2.87988 8.13012C2.87988 9.08012 3.11988 9.96512 3.59988 10.7851C4.05988 11.5751 4.68488 12.2001 5.47488 12.6601C6.29488 13.1401 7.17988 13.3801 8.12988 13.3801C8.82988 13.3801 9.49988 13.2501 10.1399 12.9901C10.7599 12.7301 11.3099 12.3651 11.7899 11.8951L11.8949 11.7901Z" fill="#6B7280"/>
</svg>
